<svg xmlns="http://www.w3.org/2000/svg" viewBox="0 0 1024 1024">
  <g id="Layer_2" data-name="Layer 2">
    <g id="Layer_1-2" data-name="Layer 1">
      <path fill="#1877f2" d="M1024,512C1024,229.23,794.77,0,512,0S0,229.23,0,512c0,255.554,187.231,467.37,432,505.778V660H302V512H432V399.2C432,270.88,508.439,200,625.389,200,681.408,200,740,210,740,210V336H675.437C611.835,336,592,375.467,592,415.957V512H734L711.3,660H592v357.778C836.769,979.37,1024,767.554,1024,512Z"/>
      <path fill="#fff" d="M711.3,660,734,512H592V415.957C592,375.467,611.835,336,675.437,336H740V210s-58.592-10-114.611-10C508.439,200,432,270.88,432,399.2V512H302V660H432v357.778a517.415,517.415,0,0,0,160,0V660Z"/>
    </g>
  </g>
</svg>